<svg xmlns="http://www.w3.org/2000/svg" width="600" height="214.5">
  <!-- Based on source available at https://www.lifx.com/pages/press -->
  <path fill="#409" d="M269.83333 36.41667h-34.91666v141.41666H309.25v-34.91666h-39.5v-106.5zm64.75 141.33333H369.5V36.41667h-34.91667zM600 36.41667h-41.75L541 76l-17.25-39.58333h-128.5v141.41666h34.91667v-44.16666h45v-33.08334h-45V71.75h71.5l20.25 36.25-39 69.83333h39L541 141.91667l16.33333 35.91666h41.75L560 108zM20.333333 88.83333c0-17.5 6.666667-35 19.916667-48.41666 13.25-13.41667 30.66667-20 48.08333-20 17.41667 0 34.83334 6.66666 48.08334 20 13.25 13.33333 19.91666 30.91666 19.91666 48.41666 0 15.41667-5.16666 30.83334-15.5 43.41667-5.91666-3.83333-12.25-7-18.75-9.41667C111.16667 118.75 99.75 116.75 88.25 116.75c-11.5 0-22.91667 2-33.83333 6.08333-6.5 2.41667-12.83334 5.58334-18.750003 9.41667-10.166667-12.58333-15.333334-28-15.333334-43.41667M88.33333 0C65.75 0 43.08333 8.66667 25.833333 26 8.583333 43.33333 0 66.08333 0 88.91667c0 20 6.666667 39.91666 19.916667 56.25 1.833333 2.25 3.833333 4.5 5.916666 6.58333l7.583334 7.5c.166666-.16667.25-.25.416666-.41667C39 153.66667 44.83333 149.41667 50.91667 146c11.58333-6.41667 24.5-9.66667 37.5-9.66667s25.83333 3.25 37.5 9.66667C132 149.41667 137.75 153.66667 143 158.83333l.41667.41667 7.5-7.58333c2.08333-2.08334 4.08333-4.33334 5.91666-6.58334 13.25-16.33333 19.91667-36.25 19.91667-56.25 0-22.75-8.58333-45.5-25.91667-62.83333-17.25-17.33333-39.83333-26-62.5-26"/>
  <path fill="#409" d="M88.33333 156.75c-14.66666 0-29.41666 5.66667-40.58333 16.91667L60.25 186.25c7.75-7.83333 17.91667-11.75 28.16667-11.75 10.16666 0 20.33333 3.91667 28.16666 11.75l12.5-12.58333c-11.33333-11.25-26-16.91667-40.75-16.91667M88.33333 194.08333c-5.16666 0-10.41666 2-14.33333 6L88.33333 214.5l14.33334-14.41667c-3.91667-4-9.08334-6-14.33334-6"/>
</svg>
